# xmcd
#
# Track frame offsets: 
#        182
#        15110
#        33565
#        44617
#        58577
#        74460
#        88865
#        101507
#        116527
#        134172
#        148360
#        163137
#        178812
#        192507
#
# Disc length: 2642 seconds
#
# Revision: 1
# Processed by: cddbd v1.5.2PL0 Copyright (c) Steve Scherf et al.
# Submitted via: ExactAudioCopyFreeDBPlugin 1.0
#
DISCID=d60a500e
DTITLE=Boca Livre - Boca Livre - Minha Historia
DYEAR=2000
DGENRE=MPB
TTITLE0=Toada
TTITLE1=Diana
TTITLE2=Nossos momentos
TTITLE3=Nenem
TTITLE4=Misterios
TTITLE5=Anima
TTITLE6=Bicicleta
TTITLE7=Quem tem a viola
TTITLE8=Panis et circenses
TTITLE9=Chegou no vento
TTITLE10=Feito misterio
TTITLE11=Boi do Maranhao
TTITLE12=Se meu jardim der flor
TTITLE13=Ponta de areia
EXTD=YEAR: 2000
EXTT0=Z  Renato - Juca Filho - Cl udio Nucci\n
EXTT1=Toninho Horta - Fernando Brant\n
EXTT2=Haroldo Barbosa - Luiz Reis\n
EXTT3=Maur cio Maestro\n
EXTT4=Joyce - Maur cio Maestro\n
EXTT5=Jos  Renato - Milton Nascimento\n
EXTT6=Jos  Renato\n
EXTT7=Z  Renato - Juca Filho - Cl udio Nucci - \nXico Chaves\n
EXTT8=Caetano Veloso - Gilberto Gil\n
EXTT9=Vin cius Cantu ria - Xico Chaves\n
EXTT10=Louren o Baeta - Cacaso\n
EXTT11=Urro do boi - Boi do pindar  (folcore \nmaranhense) - Boi Danad
EXTT11=o - S rgio \nHabibe\n
EXTT12=Jos  Renato - Xico Chave \npartcipa  o esp.: MPB-4\n
EXTT13=Milton Nascimento - Fernando Brant\n
PLAYORDER=
